<?xml version="1.0" encoding="utf-8"?>
<!-- Generator: Adobe Illustrator 23.0.3, SVG Export Plug-In . SVG Version: 6.00 Build 0)  -->
<svg version="1.1" id="Layer_1" xmlns="http://www.w3.org/2000/svg" xmlns:xlink="http://www.w3.org/1999/xlink" x="0px" y="0px"
	 viewBox="0 0 430.33 178.28" style="enable-background:new 0 0 430.33 178.28;" xml:space="preserve">
<path d="M190.15,91.68c3.05,0,5.52,2.47,5.52,5.52c0-3.05,2.47-5.52,5.52-5.52c-3.05,0-5.52-2.47-5.52-5.52
	C195.66,89.21,193.19,91.68,190.15,91.68 M345.83,90.11c-2.29,0.37-4.25,0.77-5.89,1.2c-1.64,0.43-2.98,0.97-4,1.61
	c-1.03,0.64-1.78,1.4-2.26,2.29c-0.48,0.89-0.72,2-0.72,3.32c0,2.37,0.55,4.02,1.64,4.93c1.1,0.91,2.37,1.37,3.84,1.37
	c0.73,0,1.47-0.11,2.22-0.34c0.76-0.23,1.45-0.57,2.09-1.03c0.64-0.46,1.21-1,1.71-1.64c0.5-0.64,0.87-1.35,1.1-2.12
	c0.05-0.59,0.09-1.27,0.14-2.02c0.04-0.75,0.08-1.56,0.1-2.43c0.02-0.87,0.04-1.74,0.04-2.6V90.11z M354.29,107.85
	c-0.98,0.18-1.93,0.27-2.84,0.27c-1.82,0-3.19-0.43-4.11-1.3c-0.91-0.87-1.46-2.03-1.64-3.49c-1.05,1.28-2.42,2.43-4.11,3.46
	c-1.69,1.03-3.7,1.54-6.03,1.54c-1.19,0-2.34-0.17-3.46-0.51c-1.12-0.34-2.1-0.88-2.94-1.61c-0.85-0.73-1.52-1.67-2.02-2.81
	c-0.5-1.14-0.76-2.49-0.76-4.04c0-2.83,0.83-4.97,2.5-6.44c1.67-1.46,4.03-2.49,7.09-3.08c2.23-0.41,4.01-0.77,5.3-1.1
	c1.3-0.32,2.28-0.63,2.95-0.93c0.66-0.3,1.08-0.6,1.27-0.93c0.18-0.32,0.27-0.68,0.27-1.1v-0.82c0-2.23-0.55-4.05-1.64-5.44
	c-1.1-1.39-2.99-2.09-5.68-2.09c-1.92,0-3.48,0.58-4.69,1.75c-1.21,1.16-2,2.86-2.36,5.1h-1.3c-0.09-1.18-0.24-2.3-0.44-3.36
	c-0.21-1.05-0.4-1.92-0.58-2.6c0.59-0.59,1.33-1.12,2.22-1.57c0.89-0.46,1.85-0.86,2.88-1.2c1.02-0.34,2.09-0.61,3.18-0.79
	c1.1-0.18,2.19-0.27,3.29-0.27c2.51,0,4.54,0.32,6.09,0.96c1.55,0.64,2.74,1.51,3.56,2.6c0.82,1.1,1.37,2.39,1.64,3.87
	c0.27,1.48,0.41,3.09,0.41,4.83c0,0.82-0.02,1.83-0.07,3.01c-0.05,1.19-0.08,2.43-0.1,3.73c-0.02,1.3-0.06,2.56-0.1,3.77
	c-0.04,1.21-0.07,2.25-0.07,3.11c0,1.64,0.26,2.95,0.79,3.9c0.52,0.96,1.47,1.44,2.84,1.44c0.59,0,0.98-0.02,1.17-0.07v1.57
	C356.1,107.46,355.27,107.66,354.29,107.85 M324.5,78.33c-0.34,1.1-0.6,2.03-0.79,2.81l-0.48,0.07c-0.5-0.36-1.09-0.64-1.75-0.82
	c-0.66-0.18-1.33-0.28-2.02-0.28c-1.23,0-2.29,0.27-3.18,0.79c-0.89,0.52-1.63,1.24-2.23,2.16c-0.59,0.91-1.04,1.99-1.33,3.22
	c-0.3,1.23-0.45,2.56-0.45,3.97v2.67c0,1.05,0.01,2.24,0.04,3.56c0.02,1.32,0.05,2.67,0.07,4.04c0.02,1.37,0.07,2.71,0.14,4.01
	c0.07,1.3,0.15,2.43,0.24,3.39c-0.5-0.05-1.07-0.08-1.73-0.1c-0.65-0.02-1.3-0.03-1.93-0.03c-0.64,0-1.28,0.01-1.94,0.03
	c-0.65,0.02-1.23,0.06-1.73,0.1c0.08-0.96,0.15-2.11,0.21-3.46c0.06-1.35,0.11-2.74,0.15-4.18c0.04-1.44,0.07-2.85,0.09-4.25
	c0.02-1.39,0.03-2.61,0.03-3.66v-2.88c0-1-0.01-2.11-0.03-3.32c-0.02-1.21-0.05-2.44-0.09-3.7c-0.04-1.25-0.09-2.47-0.15-3.66
	c-0.06-1.19-0.13-2.3-0.21-3.35c0.5,0.05,1.07,0.08,1.73,0.1c0.65,0.02,1.3,0.03,1.93,0.03c0.63,0,1.24-0.01,1.83-0.03
	c0.59-0.02,1.06-0.06,1.42-0.1c-0.09,0.82-0.18,1.92-0.27,3.29c-0.09,1.37-0.14,2.6-0.14,3.7h0.28c2.42-4.98,5.64-7.46,9.65-7.46
	c0.69,0,1.32,0.05,1.92,0.14c0.59,0.09,1.1,0.21,1.51,0.34l0.14,0.41C325.15,76.42,324.84,77.24,324.5,78.33 M290.16,88.61
	c0-1.23-0.08-2.52-0.24-3.87c-0.16-1.35-0.49-2.59-0.99-3.73c-0.51-1.14-1.26-2.09-2.26-2.84c-1.01-0.75-2.33-1.13-3.97-1.13
	c-1.6,0-2.94,0.39-4.04,1.16c-1.1,0.78-1.98,1.75-2.67,2.91c-0.69,1.16-1.2,2.43-1.54,3.8c-0.34,1.37-0.54,2.65-0.58,3.83h7.05h2.33
	c0.87,0,1.73-0.01,2.6-0.03c0.87-0.02,1.68-0.05,2.43-0.07C289.03,88.62,289.66,88.61,290.16,88.61 M282.97,74.5
	c2.42,0,4.5,0.38,6.26,1.13c1.76,0.75,3.2,1.78,4.32,3.08c1.12,1.3,1.95,2.8,2.5,4.49c0.55,1.69,0.82,3.49,0.82,5.41
	c0,0.32-0.01,0.71-0.04,1.16c-0.02,0.45-0.08,0.94-0.17,1.44l-0.41,0.41c-2.6-0.05-5.24-0.08-7.91-0.1
	c-2.67-0.02-4.94-0.03-6.81-0.03h-7.74c-0.04,0.32-0.07,0.62-0.07,0.89v0.82c0,1.74,0.24,3.36,0.72,4.86
	c0.48,1.51,1.2,2.82,2.16,3.94c0.96,1.12,2.16,2.01,3.6,2.67c1.44,0.66,3.12,0.99,5.03,0.99c2.05,0,3.95-0.39,5.68-1.16
	c1.74-0.77,3.17-1.82,4.32-3.15l0.68,0.34c-0.18,0.64-0.33,1.32-0.44,2.05c-0.11,0.73-0.2,1.32-0.24,1.78
	c-1.42,1.01-3.15,1.81-5.2,2.43c-2.05,0.62-4.25,0.93-6.57,0.93c-2.6,0-4.94-0.39-7.02-1.16c-2.08-0.77-3.85-1.89-5.31-3.36
	c-1.46-1.46-2.58-3.23-3.36-5.3c-0.78-2.08-1.17-4.44-1.17-7.09c0-2.51,0.37-4.83,1.1-6.95c0.73-2.12,1.8-3.96,3.22-5.51
	c1.42-1.55,3.13-2.77,5.13-3.66C278.06,74.94,280.37,74.5,282.97,74.5 M267.02,59.74c-0.41,1.17-0.73,2.23-0.96,3.18l-0.89,0.07
	c-0.32-0.68-0.8-1.31-1.44-1.88c-0.64-0.57-1.51-0.85-2.6-0.85c-1.05,0-1.93,0.22-2.64,0.65c-0.71,0.43-1.27,0.97-1.68,1.6
	c-0.41,0.63-0.71,1.36-0.89,2.18c-0.18,0.82-0.27,1.59-0.27,2.32c0,1.23,0.11,2.66,0.34,4.29c0.23,1.64,0.39,3.07,0.48,4.29h7.6
	v2.74h-7.6c-0.05,1.51-0.07,2.97-0.07,4.38v3.63v4.31c0,1.05,0.01,2.34,0.04,3.87c0.02,1.53,0.06,3.12,0.1,4.76
	c0.05,1.64,0.1,3.24,0.17,4.79c0.07,1.55,0.15,2.83,0.24,3.83c-0.5-0.05-1.1-0.08-1.78-0.1c-0.68-0.02-1.35-0.03-1.99-0.03
	c-0.64,0-1.29,0.01-1.95,0.03c-0.66,0.02-1.25,0.06-1.75,0.1c0.09-0.96,0.17-2.21,0.24-3.77c0.07-1.55,0.13-3.15,0.17-4.79
	c0.04-1.64,0.08-3.24,0.1-4.79c0.02-1.55,0.03-2.85,0.03-3.9v-4.31v-3.63c0-1.41-0.02-2.88-0.07-4.38h-5.48v-2.74h5.48v-1.43
	c0-2.27,0.34-4.5,1.03-6.69c0.69-2.18,1.66-4.14,2.91-5.87c1.26-1.73,2.8-3.12,4.62-4.16c1.82-1.05,3.88-1.57,6.16-1.57
	c0.69,0,1.33,0.06,1.95,0.17c0.62,0.11,1.08,0.26,1.4,0.44l0.14,0.48C267.81,57.65,267.43,58.58,267.02,59.74 M240.79,97.37
	c0,1.92-0.37,3.57-1.1,4.96c-0.73,1.39-1.71,2.56-2.94,3.49c-1.23,0.94-2.65,1.63-4.25,2.09c-1.6,0.46-3.29,0.68-5.07,0.68
	c-1.74,0-3.44-0.21-5.1-0.61c-1.67-0.41-2.91-0.85-3.73-1.3c0.09-0.78,0.24-1.75,0.45-2.91c0.2-1.16,0.49-2.27,0.85-3.32h1.1
	c0.46,1.87,1.37,3.26,2.74,4.14c1.37,0.89,2.92,1.33,4.66,1.33c0.87,0,1.7-0.11,2.5-0.34c0.8-0.23,1.5-0.58,2.09-1.06
	c0.59-0.48,1.07-1.08,1.44-1.82c0.37-0.73,0.55-1.62,0.55-2.67c0-1.92-0.59-3.31-1.78-4.18c-1.19-0.87-3.01-1.71-5.48-2.54
	c-1.05-0.32-2.03-0.71-2.95-1.16c-0.91-0.46-1.74-1.03-2.46-1.71c-0.73-0.68-1.3-1.51-1.71-2.5c-0.41-0.98-0.62-2.2-0.62-3.66
	c0-1.78,0.35-3.29,1.06-4.52c0.71-1.23,1.62-2.22,2.74-2.98c1.12-0.75,2.36-1.3,3.73-1.64c1.37-0.34,2.69-0.51,3.97-0.51
	c1.64,0,3.24,0.15,4.79,0.44c1.55,0.3,2.78,0.68,3.7,1.13c-0.28,0.69-0.56,1.6-0.86,2.74c-0.3,1.14-0.54,2.21-0.72,3.22h-1.1
	c-0.36-1.51-0.98-2.73-1.85-3.66c-0.87-0.94-2.26-1.4-4.18-1.4c-1.51,0-2.84,0.4-4.01,1.2c-1.16,0.8-1.75,2.11-1.75,3.94
	c0,1.69,0.55,2.95,1.64,3.77c1.1,0.82,2.65,1.55,4.66,2.19c2.88,0.91,5.09,2.03,6.64,3.35C240.01,92.87,240.79,94.81,240.79,97.37
	 M205.52,91.69c0-1.64-0.16-3.33-0.48-5.07c-0.32-1.73-0.85-3.31-1.61-4.73c-0.76-1.41-1.76-2.57-3.01-3.46
	c-1.25-0.89-2.82-1.33-4.69-1.33c-1.92,0-3.52,0.45-4.79,1.33c-1.28,0.89-2.3,2.05-3.05,3.46c-0.75,1.42-1.28,2.99-1.57,4.73
	c-0.3,1.74-0.45,3.42-0.45,5.07c0,1.6,0.15,3.24,0.45,4.93c0.29,1.69,0.82,3.25,1.57,4.69c0.75,1.44,1.77,2.61,3.05,3.52
	c1.28,0.91,2.88,1.37,4.79,1.37c1.87,0,3.44-0.45,4.69-1.33c1.26-0.89,2.26-2.05,3.01-3.46c0.75-1.41,1.29-2.98,1.61-4.69
	C205.37,95.01,205.52,93.33,205.52,91.69 M212.72,91.69c0,2.51-0.4,4.81-1.2,6.91c-0.8,2.1-1.93,3.92-3.39,5.45
	c-1.46,1.53-3.25,2.72-5.38,3.56c-2.12,0.85-4.49,1.27-7.09,1.27c-3.15,0-5.81-0.5-7.98-1.5c-2.17-1.01-3.93-2.32-5.27-3.94
	c-1.35-1.62-2.32-3.46-2.91-5.51c-0.59-2.05-0.89-4.13-0.89-6.23c0-2.42,0.38-4.68,1.13-6.78c0.76-2.1,1.85-3.91,3.29-5.44
	c1.44-1.53,3.22-2.74,5.34-3.63c2.12-0.89,4.55-1.34,7.29-1.34c2.88,0,5.39,0.42,7.53,1.27c2.15,0.84,3.91,2.02,5.31,3.52
	c1.39,1.51,2.44,3.32,3.15,5.44C212.36,86.86,212.72,89.18,212.72,91.69 M169.99,107.91c-0.41-0.05-0.94-0.08-1.6-0.1
	c-0.65-0.02-1.3-0.03-1.93-0.03c-0.63,0-1.28,0.01-1.93,0.03c-0.66,0.02-1.23,0.06-1.73,0.1c0.04-1.1,0.1-2.37,0.17-3.83
	c0.07-1.46,0.13-2.97,0.17-4.52c0.04-1.55,0.08-3.1,0.1-4.66c0.02-1.55,0.03-2.97,0.03-4.25v-2.05c0-1.14-0.07-2.3-0.21-3.49
	c-0.14-1.19-0.44-2.26-0.89-3.22c-0.46-0.96-1.15-1.73-2.07-2.33c-0.92-0.59-2.13-0.89-3.64-0.89c-2.34,0-4.28,0.95-5.81,2.84
	c-1.54,1.89-2.3,4.55-2.3,7.98v2.88V96c0,1.32,0.02,2.7,0.07,4.14c0.04,1.44,0.1,2.84,0.17,4.21c0.07,1.37,0.15,2.56,0.24,3.56
	c-0.45-0.05-1.01-0.08-1.66-0.1c-0.65-0.02-1.3-0.03-1.93-0.03c-0.63,0-1.28,0.01-1.93,0.03c-0.66,0.02-1.21,0.06-1.66,0.1
	c0.09-0.96,0.17-2.12,0.24-3.49c0.07-1.37,0.11-2.77,0.14-4.21c0.02-1.44,0.04-2.84,0.07-4.21c0.02-1.37,0.03-2.58,0.03-3.63v-4.52
	c0-1.14-0.08-2.27-0.24-3.39c-0.16-1.12-0.47-2.1-0.93-2.95c-0.46-0.85-1.1-1.53-1.92-2.05c-0.82-0.52-1.92-0.79-3.29-0.79
	c-2.51,0-4.52,0.95-6.03,2.84c-1.51,1.89-2.26,4.55-2.26,7.98v4.59c0,1.05,0.01,2.17,0.03,3.35c0.02,1.19,0.04,2.4,0.07,3.63
	c0.02,1.23,0.07,2.44,0.14,3.63c0.07,1.19,0.15,2.26,0.24,3.22c-0.5-0.05-1.08-0.08-1.75-0.1c-0.66-0.02-1.31-0.03-1.95-0.03
	c-0.64,0-1.29,0.01-1.95,0.03c-0.66,0.02-1.24,0.06-1.74,0.1c0.09-0.96,0.17-2.11,0.24-3.46c0.07-1.35,0.13-2.75,0.17-4.21
	c0.04-1.46,0.08-2.88,0.1-4.25c0.02-1.37,0.03-2.58,0.03-3.63v-2.88c0-2.1-0.03-4.38-0.1-6.85c-0.07-2.47-0.22-4.86-0.45-7.19
	c0.64,0.05,1.25,0.08,1.85,0.1c0.59,0.02,1.21,0.03,1.85,0.03c0.55,0,1.12-0.01,1.71-0.03c0.59-0.02,1.14-0.06,1.64-0.1
	c-0.14,1.64-0.21,3.49-0.21,5.55h0.28c1.18-1.92,2.69-3.43,4.54-4.56c1.84-1.12,3.97-1.68,6.38-1.68c2.46,0,4.47,0.58,6.04,1.75
	c1.57,1.17,2.63,2.84,3.17,5.03c1.19-2.05,2.75-3.7,4.69-4.93c1.94-1.23,4.07-1.85,6.4-1.85c2.15,0,3.93,0.32,5.34,0.96
	c1.41,0.64,2.53,1.51,3.35,2.6c0.82,1.1,1.39,2.36,1.71,3.8c0.32,1.44,0.48,2.93,0.48,4.49c0,1.19-0.02,2.52-0.07,4.01
	c-0.04,1.48-0.07,3.05-0.07,4.69v0.82c0,0.78,0.01,1.69,0.03,2.74c0.02,1.05,0.04,2.12,0.07,3.22c0.02,1.1,0.06,2.16,0.1,3.19
	C169.9,106.31,169.94,107.18,169.99,107.91 M111.13,107.74c-1.49,0.39-2.91,0.58-4.28,0.58c-2.65,0-4.51-0.74-5.58-2.23
	c-1.07-1.48-1.61-3.57-1.61-6.27c0-1.23,0.02-2.68,0.07-4.35c0.04-1.67,0.09-3.45,0.14-5.34c0.04-1.89,0.09-3.85,0.14-5.86
	c0.04-2.01,0.07-3.99,0.07-5.96h-5.34v-2.67h5.41v-3.08c0-1.28-0.04-2.6-0.14-3.97c0.41-0.14,0.91-0.31,1.51-0.52
	c0.59-0.21,1.2-0.43,1.81-0.68c0.62-0.25,1.21-0.51,1.78-0.79c0.57-0.27,1.06-0.55,1.47-0.82l0.48,0.27
	c-0.09,0.69-0.16,1.46-0.2,2.33c-0.05,0.87-0.1,1.74-0.17,2.64c-0.07,0.89-0.11,1.74-0.14,2.53c-0.02,0.8-0.03,1.5-0.03,2.09h8.29
	v2.67h-8.36c-0.05,1.46-0.09,3-0.14,4.62c-0.04,1.62-0.09,3.25-0.14,4.9c-0.05,1.64-0.08,3.26-0.1,4.86
	c-0.02,1.6-0.03,3.08-0.03,4.45c0,1.23,0.06,2.33,0.17,3.29c0.11,0.96,0.34,1.77,0.69,2.43c0.34,0.66,0.82,1.17,1.44,1.5
	c0.62,0.34,1.43,0.52,2.43,0.52c0.73,0,1.45-0.07,2.16-0.21c0.71-0.14,1.29-0.32,1.74-0.55l0.28,0.14l0.14,1.78
	C113.93,106.8,112.62,107.36,111.13,107.74 M82,90.11c-2.29,0.37-4.25,0.77-5.89,1.2c-1.64,0.43-2.98,0.97-4,1.61
	c-1.03,0.64-1.78,1.4-2.26,2.29c-0.48,0.89-0.72,2-0.72,3.32c0,2.37,0.55,4.02,1.64,4.93c1.1,0.91,2.37,1.37,3.84,1.37
	c0.73,0,1.47-0.11,2.22-0.34c0.76-0.23,1.45-0.57,2.09-1.03c0.64-0.46,1.21-1,1.71-1.64c0.5-0.64,0.87-1.35,1.1-2.12
	c0.05-0.59,0.09-1.27,0.14-2.02c0.04-0.75,0.08-1.56,0.1-2.43c0.03-0.87,0.04-1.74,0.04-2.6V90.11z M90.45,107.85
	c-0.98,0.18-1.93,0.27-2.84,0.27c-1.82,0-3.2-0.43-4.11-1.3c-0.91-0.87-1.46-2.03-1.64-3.49c-1.05,1.28-2.42,2.43-4.11,3.46
	c-1.69,1.03-3.7,1.54-6.03,1.54c-1.19,0-2.34-0.17-3.46-0.51c-1.12-0.34-2.1-0.88-2.94-1.61c-0.85-0.73-1.52-1.67-2.02-2.81
	c-0.5-1.14-0.76-2.49-0.76-4.04c0-2.83,0.83-4.97,2.5-6.44c1.67-1.46,4.03-2.49,7.09-3.08c2.24-0.41,4.01-0.77,5.31-1.1
	c1.3-0.32,2.28-0.63,2.94-0.93c0.66-0.3,1.08-0.6,1.27-0.93c0.18-0.32,0.27-0.68,0.27-1.1v-0.82c0-2.23-0.55-4.05-1.64-5.44
	c-1.1-1.39-2.99-2.09-5.68-2.09c-1.92,0-3.48,0.58-4.69,1.75c-1.21,1.16-2,2.86-2.36,5.1h-1.3c-0.09-1.18-0.24-2.3-0.44-3.36
	c-0.21-1.05-0.4-1.92-0.58-2.6c0.59-0.59,1.33-1.12,2.22-1.57c0.89-0.46,1.85-0.86,2.88-1.2c1.03-0.34,2.09-0.61,3.18-0.79
	c1.1-0.18,2.19-0.27,3.29-0.27c2.51,0,4.54,0.32,6.09,0.96c1.55,0.64,2.74,1.51,3.56,2.6s1.37,2.39,1.64,3.87
	c0.27,1.48,0.41,3.09,0.41,4.83c0,0.82-0.02,1.83-0.07,3.01c-0.05,1.19-0.08,2.43-0.1,3.73c-0.02,1.3-0.06,2.56-0.1,3.77
	c-0.04,1.21-0.07,2.25-0.07,3.11c0,1.64,0.26,2.95,0.79,3.9c0.52,0.96,1.47,1.44,2.84,1.44c0.59,0,0.98-0.02,1.16-0.07v1.57
	C92.27,107.46,91.43,107.66,90.45,107.85"/>
</svg>
