<?xml version="1.0" encoding="utf-8"?>
<!-- Generator: Adobe Illustrator 23.0.3, SVG Export Plug-In . SVG Version: 6.00 Build 0)  -->
<svg version="1.1" id="Layer_1" xmlns="http://www.w3.org/2000/svg" xmlns:xlink="http://www.w3.org/1999/xlink" x="0px" y="0px"
	 viewBox="0 0 205 178.28" style="enable-background:new 0 0 205 178.28;" xml:space="preserve">
<style type="text/css">
	.st0{fill:#231F20;}
</style>
<g>
	<g>
		<path class="st0" d="M73.49,62.05v14.11h-4.44V62.56c0-4.81-2.31-7.17-6.34-7.17c-4.44,0-7.36,2.82-7.36,8.14v12.63h-4.44V62.56
			c0-4.81-2.31-7.17-6.34-7.17c-4.44,0-7.36,2.82-7.36,8.14v12.63h-4.44V51.64h4.26v3.66c1.76-2.5,4.76-3.89,8.47-3.89
			c3.75,0,6.9,1.48,8.51,4.53c1.85-2.78,5.28-4.53,9.44-4.53C69.42,51.41,73.49,54.83,73.49,62.05z"/>
		<path class="st0" d="M101.11,61.36v14.81H96.9v-3.24c-1.48,2.22-4.21,3.52-8.05,3.52c-5.55,0-9.07-2.96-9.07-7.22
			c0-3.93,2.55-7.17,9.86-7.17h7.03v-0.88c0-3.75-2.18-5.92-6.57-5.92c-2.91,0-5.88,1.02-7.77,2.64l-1.85-3.33
			c2.54-2.04,6.2-3.15,10.13-3.15C97.31,51.41,101.11,54.65,101.11,61.36z M96.66,68.67v-3.42h-6.85c-4.4,0-5.65,1.71-5.65,3.79
			c0,2.45,2.04,3.98,5.42,3.98C92.92,73.02,95.55,71.49,96.66,68.67z"/>
		<path class="st0" d="M132.8,51.64v21.19c0,8.65-4.39,12.59-12.72,12.59c-4.49,0-9.02-1.25-11.71-3.66l2.13-3.42
			c2.27,1.94,5.83,3.19,9.44,3.19c5.78,0,8.42-2.68,8.42-8.24v-1.94c-2.13,2.55-5.32,3.79-8.84,3.79c-7.08,0-12.45-4.81-12.45-11.89
			c0-7.08,5.37-11.85,12.45-11.85c3.66,0,6.99,1.34,9.07,4.03v-3.79H132.8z M128.45,63.25c0-4.77-3.52-7.96-8.42-7.96
			c-4.95,0-8.47,3.19-8.47,7.96c0,4.72,3.52,8.01,8.47,8.01C124.93,71.26,128.45,67.97,128.45,63.25z"/>
		<path class="st0" d="M140.48,44.05c0-1.62,1.3-2.92,3.01-2.92c1.71,0,3.01,1.25,3.01,2.82c0,1.67-1.25,2.96-3.01,2.96
			C141.77,46.92,140.48,45.67,140.48,44.05z M141.26,51.64h4.44v24.53h-4.44V51.64z"/>
		<path class="st0" d="M151.9,63.9c0-7.31,5.41-12.49,12.96-12.49c4.4,0,8.05,1.8,10,5.23l-3.38,2.18
			c-1.57-2.41-3.98-3.52-6.66-3.52c-4.81,0-8.42,3.38-8.42,8.61c0,5.32,3.61,8.65,8.42,8.65c2.68,0,5.09-1.11,6.66-3.52l3.38,2.13
			c-1.94,3.42-5.6,5.27-10,5.27C157.32,76.44,151.9,71.21,151.9,63.9z"/>
	</g>
	<g>
		<path class="st0" d="M70.41,117.43v14.25H63.2v-13.14c0-4.03-1.81-5.88-4.72-5.88c-3.24,0-5.51,2.08-5.51,6.52v12.49h-7.22v-13.14
			c0-4.03-1.71-5.88-4.72-5.88c-3.19,0-5.46,2.08-5.46,6.52v12.49h-7.22v-24.89h6.9v2.87c1.85-2.13,4.63-3.24,7.82-3.24
			c3.47,0,6.43,1.34,8.19,4.07c1.99-2.55,5.23-4.07,8.98-4.07C66.16,106.42,70.41,109.84,70.41,117.43z"/>
		<path class="st0" d="M98.54,117.48v14.21h-6.76v-3.1c-1.34,2.27-3.93,3.47-7.59,3.47c-5.83,0-9.3-3.24-9.3-7.54
			c0-4.4,3.1-7.45,10.69-7.45h5.74c0-3.1-1.85-4.91-5.74-4.91c-2.64,0-5.37,0.88-7.17,2.31l-2.59-5.04
			c2.73-1.94,6.76-3.01,10.74-3.01C94.14,106.42,98.54,109.94,98.54,117.48z M91.32,123.82v-2.55h-4.95c-3.38,0-4.44,1.25-4.44,2.92
			c0,1.8,1.53,3.01,4.07,3.01C88.41,127.2,90.49,126.09,91.32,123.82z"/>
		<path class="st0" d="M115.38,121.92l-3.47,3.42v6.34h-7.22V97.35h7.22v19.44l10.55-9.99h8.61l-10.36,10.55l11.29,14.35h-8.75
			L115.38,121.92z"/>
		<path class="st0" d="M159.1,121.27h-18.83c0.69,3.1,3.33,5,7.13,5c2.64,0,4.54-0.79,6.25-2.41l3.84,4.16
			c-2.31,2.64-5.78,4.03-10.27,4.03c-8.61,0-14.21-5.41-14.21-12.82c0-7.45,5.69-12.82,13.28-12.82c7.31,0,12.96,4.9,12.96,12.91
			C159.24,119.88,159.15,120.67,159.1,121.27z M140.18,117.06h12.26c-0.51-3.15-2.87-5.18-6.11-5.18
			C143.05,111.88,140.69,113.87,140.18,117.06z"/>
		<path class="st0" d="M179.13,106.42v6.66c-0.6-0.05-1.06-0.09-1.62-0.09c-3.98,0-6.62,2.18-6.62,6.94v11.75h-7.22v-24.89h6.9v3.29
			C172.33,107.67,175.3,106.42,179.13,106.42z"/>
	</g>
</g>
</svg>
